<?xml version="1.0" standalone="no"?>
<!DOCTYPE svg PUBLIC "-//W3C//DTD SVG 20010904//EN"
 "http://www.w3.org/TR/2001/REC-SVG-20010904/DTD/svg10.dtd">
<svg version="1.0" xmlns="http://www.w3.org/2000/svg"
 width="835.000000pt" height="730.000000pt" viewBox="0 0 835.000000 730.000000"
 preserveAspectRatio="xMidYMid meet">

<g transform="translate(0.000000,730.000000) scale(0.100000,-0.100000)"
fill="#000000" stroke="none">
<path d="M4913 7076 c-103 -33 -185 -106 -232 -205 l-26 -56 -3 -965 c-2 -886
-1 -969 15 -1019 22 -72 69 -137 129 -183 61 -47 118 -67 220 -76 l79 -7 5
-170 c3 -97 10 -179 17 -190 23 -41 62 -67 106 -72 58 -7 87 10 167 93 35 38
124 131 197 207 l133 137 738 0 c488 0 758 4 798 11 112 20 212 98 266 207
l23 47 0 995 0 995 -25 50 c-34 70 -104 142 -175 179 l-60 31 -1165 2 c-944 1
-1173 -1 -1207 -11z m2351 -127 c56 -16 121 -80 146 -145 20 -54 20 -74 20
-968 0 -1008 2 -979 -63 -1053 -17 -20 -54 -47 -82 -59 l-50 -24 -762 0 c-662
0 -768 -2 -801 -15 -27 -11 -94 -74 -232 -220 -107 -113 -198 -205 -202 -205
-4 0 -8 74 -8 164 0 153 -1 165 -22 196 -41 60 -67 71 -171 79 -82 7 -103 12
-143 37 -25 16 -61 49 -78 72 l-31 44 -3 965 c-2 950 -2 967 18 1007 26 54 78
104 126 121 32 12 234 14 1169 15 773 0 1142 -3 1169 -11z"/>
<path d="M6534 6792 c-41 -26 -66 -65 -87 -133 -29 -95 -182 -328 -262 -397
-35 -31 -120 -55 -229 -65 -44 -4 -49 -3 -64 23 -26 46 -61 60 -145 60 -68 0
-76 2 -82 21 -4 11 -21 29 -38 40 -29 17 -53 19 -285 19 -283 0 -302 -4 -328
-65 -22 -53 -21 -1263 1 -1310 28 -58 41 -60 325 -60 284 0 297 2 325 61 16
34 17 34 83 34 79 0 110 13 137 58 l20 33 95 -5 c67 -3 124 -14 194 -35 54
-17 126 -35 160 -41 82 -13 670 -13 718 0 77 22 137 102 138 183 0 21 -9 60
-21 87 -20 46 -20 49 -3 81 24 46 25 143 1 191 -18 35 -18 37 -1 70 26 47 25
152 -1 196 -18 31 -19 33 -2 61 44 75 30 179 -34 241 -51 50 -99 60 -279 60
-94 0 -140 4 -140 11 0 6 11 38 25 72 51 129 69 201 70 277 0 65 -4 82 -30
130 -41 74 -97 113 -172 117 -45 3 -65 0 -89 -15z m132 -143 c26 -28 29 -36
28 -97 -1 -57 -11 -92 -64 -227 -52 -133 -64 -174 -70 -246 -5 -66 -14 -98
-35 -138 -32 -59 -119 -144 -188 -183 -54 -32 -68 -65 -43 -103 32 -49 104
-25 222 72 l42 34 7 -38 c4 -20 15 -54 26 -75 19 -38 19 -38 -3 -80 -28 -56
-28 -121 0 -180 l23 -46 -23 -38 c-17 -29 -22 -52 -21 -96 l1 -58 -93 0 c-80
0 -112 6 -227 40 -105 33 -155 42 -240 47 l-108 6 0 408 0 409 23 4 c12 3 53
8 91 11 154 15 229 50 311 145 105 124 237 342 259 433 9 37 44 36 82 -4z
m-896 -999 l0 -500 -45 0 -45 0 0 500 0 500 45 0 45 0 0 -500z m1290 390 c24
-24 25 -48 4 -78 -15 -21 -21 -22 -179 -22 l-164 0 -16 29 c-16 32 -8 74 17
84 7 3 82 6 166 6 139 1 154 -1 172 -19z m0 -260 c25 -25 25 -51 3 -79 -17
-21 -25 -22 -183 -19 l-165 3 -13 27 c-13 29 -4 63 22 80 6 4 80 8 164 8 139
0 154 -2 172 -20z m0 -260 c24 -24 25 -48 4 -78 -15 -21 -21 -22 -178 -22
-119 0 -166 3 -174 13 -22 27 -22 54 -1 80 l20 27 155 0 c141 0 156 -2 174
-20z m-3 -262 c29 -27 29 -55 1 -85 -21 -22 -28 -23 -170 -23 -145 0 -150 1
-173 25 -30 29 -31 45 -4 79 l20 26 152 0 c141 0 152 -1 174 -22z"/>
<path d="M2855 5920 c-223 -36 -397 -119 -550 -261 -133 -124 -229 -284 -282
-464 -25 -85 -26 -105 -30 -364 l-5 -273 -44 -58 c-210 -270 -46 -660 298
-705 45 -6 47 -7 53 -46 11 -61 61 -195 106 -278 73 -137 177 -249 312 -339
l68 -45 -3 -126 -3 -126 -189 -93 -190 -93 -350 -89 c-193 -49 -370 -95 -393
-104 -62 -22 -146 -88 -181 -142 -64 -96 -72 -135 -88 -419 -7 -143 -18 -327
-24 -410 -19 -297 -33 -642 -27 -667 10 -37 55 -88 94 -104 27 -12 334 -14
1828 -14 1980 0 1837 -5 1890 64 38 50 40 85 21 386 -9 140 -23 388 -31 550
-23 457 -29 496 -81 586 -34 59 -115 131 -177 160 -29 13 -213 64 -409 114
l-356 89 -188 93 -189 93 -2 135 -3 135 76 55 c87 63 172 150 228 234 71 106
135 257 151 353 6 41 7 42 53 48 26 3 76 17 112 31 265 99 363 412 205 651
l-35 53 0 340 c0 386 -7 445 -67 564 -49 98 -163 211 -258 255 -138 65 -287
76 -426 31 l-64 -21 -62 60 c-72 68 -148 115 -236 144 -53 17 -93 20 -282 23
-121 1 -242 -1 -270 -6z m606 -1004 c97 -83 284 -158 453 -181 61 -9 121 -18
134 -21 l22 -4 0 -441 c0 -490 -4 -531 -64 -663 -113 -247 -297 -405 -556
-477 -124 -35 -310 -34 -430 3 -258 78 -425 221 -540 464 -65 137 -71 191 -68
634 l3 385 45 -5 c25 -3 110 -5 190 -4 117 0 163 5 240 24 178 43 343 135 465
259 33 34 61 61 63 61 2 0 22 -15 43 -34z m-1181 -680 c0 -168 -3 -307 -8
-310 -4 -2 -30 0 -57 5 -72 13 -149 70 -194 143 -35 57 -36 62 -36 155 0 88 3
101 29 149 47 85 158 158 244 161 l22 1 0 -304z m2043 272 c71 -36 116 -79
147 -141 26 -51 30 -72 30 -137 0 -66 -4 -86 -31 -138 -45 -91 -136 -157 -224
-164 l-40 -3 -3 309 -2 309 41 -7 c22 -4 59 -16 82 -28z m-818 -1891 l-95
-197 -163 0 -164 0 -53 118 c-75 168 -91 202 -111 250 -14 32 -19 68 -19 138
0 52 4 94 9 94 5 0 57 -11 115 -25 136 -32 281 -34 415 -5 51 11 107 26 124
33 l32 14 3 -112 3 -112 -96 -196z"/>
<path d="M2866 4274 c-9 -8 -16 -28 -16 -43 0 -75 108 -83 125 -9 13 53 -69
92 -109 52z"/>
<path d="M3546 4268 c-22 -30 -20 -54 5 -79 29 -29 79 -23 99 14 13 24 13 30
0 55 -21 37 -81 44 -104 10z"/>
<path d="M2922 3717 c-12 -13 -22 -31 -22 -41 0 -10 30 -48 68 -85 82 -82 147
-111 267 -118 129 -8 246 41 329 139 40 46 46 86 18 111 -30 28 -61 20 -101
-23 -20 -22 -65 -53 -104 -71 -62 -29 -75 -31 -142 -27 -84 6 -146 35 -206 99
-43 45 -75 50 -107 16z"/>
</g>
</svg>
