<?xml version="1.0" standalone="no"?>
<!DOCTYPE svg PUBLIC "-//W3C//DTD SVG 20010904//EN"
 "http://www.w3.org/TR/2001/REC-SVG-20010904/DTD/svg10.dtd">
<svg version="1.0" xmlns="http://www.w3.org/2000/svg"
 width="810.000000pt" height="677.000000pt" viewBox="0 0 810.000000 677.000000"
 preserveAspectRatio="xMidYMid meet">

<g transform="translate(0.000000,677.000000) scale(0.100000,-0.100000)"
fill="#000000" stroke="none">
<path d="M5633 6036 c-37 -17 -53 -43 -53 -87 0 -36 37 -76 114 -125 25 -16
46 -32 46 -36 0 -4 -29 -23 -65 -43 -36 -20 -72 -46 -80 -58 -17 -24 -20 -70
-5 -96 9 -17 95 -78 241 -169 84 -53 126 -56 163 -11 50 59 29 109 -74 175
-33 22 -60 41 -60 44 0 3 31 22 69 44 96 54 117 108 64 165 -36 38 -274 198
-304 205 -13 3 -38 -1 -56 -8z"/>
<path d="M4045 5650 c-47 -48 -138 -96 -198 -105 -32 -5 -60 0 -115 20 -92 33
-166 41 -229 26 -153 -39 -349 -196 -390 -314 -14 -41 -18 -82 -18 -197 1
-164 19 -266 84 -467 35 -108 39 -131 44 -263 3 -80 13 -183 22 -229 54 -277
183 -521 370 -699 l95 -91 0 -73 c0 -175 -45 -363 -105 -442 -17 -22 -62 -65
-100 -94 -39 -30 -71 -57 -73 -61 -1 -4 39 -22 90 -39 162 -56 348 -89 348
-62 0 6 14 10 30 10 19 0 30 -5 30 -14 0 -45 407 -27 620 28 103 26 207 63
214 75 3 4 -23 29 -58 54 -35 26 -78 64 -96 84 -66 75 -108 219 -117 403 l-6
125 110 110 c121 121 170 190 243 340 92 191 130 354 136 582 3 118 8 163 23
205 85 231 69 426 -42 530 -21 20 -36 42 -32 47 9 15 68 13 138 -3 l57 -13 0
28 c0 47 -37 131 -90 201 -88 117 -246 229 -401 285 -68 25 -87 27 -224 27
-131 1 -158 -2 -209 -22 -33 -12 -60 -21 -61 -19 -1 1 -7 17 -14 35 -8 17 -19
32 -25 32 -7 0 -30 -18 -51 -40z m-381 -980 c14 -21 40 -47 58 -58 40 -24 137
-57 195 -66 l42 -6 -14 41 c-57 161 57 245 261 191 118 -32 351 -138 532 -242
l52 -30 0 -118 c0 -262 -80 -509 -230 -712 -130 -174 -305 -280 -464 -280
-152 0 -327 107 -455 280 -181 243 -267 584 -220 870 11 67 13 69 60 99 26 16
69 57 96 91 l48 62 7 -43 c4 -23 19 -59 32 -79z"/>
<path d="M3600 4395 c0 -65 54 -132 126 -155 67 -23 152 11 189 75 43 73 27
137 -21 84 -59 -66 -190 -66 -248 0 -26 29 -46 27 -46 -4z"/>
<path d="M4260 4391 c0 -99 114 -181 210 -152 73 22 130 90 130 156 0 31 -20
33 -46 4 -30 -34 -69 -49 -124 -49 -55 0 -94 15 -124 49 -27 30 -46 27 -46 -8z"/>
<path d="M4023 3832 c-102 -36 -215 -149 -189 -190 3 -6 44 -2 98 10 105 22
233 21 355 -2 40 -8 75 -11 79 -7 26 26 -66 131 -150 172 -72 34 -130 39 -193
17z"/>
<path d="M2468 5613 c-53 -34 -60 -95 -16 -154 12 -16 19 -31 16 -35 -4 -3
-59 -1 -124 4 -64 6 -127 7 -138 2 -45 -17 -73 -71 -57 -111 14 -39 209 -317
233 -334 33 -22 72 -18 107 11 47 39 43 82 -15 167 l-46 69 136 -7 135 -8 30
31 c47 47 42 70 -50 208 -44 67 -90 131 -103 143 -31 29 -75 35 -108 14z"/>
<path d="M5535 5179 c-42 -25 -246 -192 -255 -209 -29 -54 6 -125 66 -136 30
-5 43 -1 80 25 25 17 47 31 49 31 3 0 5 -59 5 -131 l0 -131 29 -29 c34 -34 72
-38 114 -11 60 38 276 219 291 244 24 40 20 76 -13 109 -46 45 -84 40 -162
-22 l-64 -51 -5 131 c-5 123 -7 132 -30 156 -30 29 -77 40 -105 24z"/>
<path d="M2580 4636 c-32 -10 -41 -23 -107 -151 -82 -159 -90 -199 -48 -240
17 -17 35 -25 60 -25 51 0 72 14 99 68 l24 47 46 -99 c25 -54 46 -102 46 -107
0 -4 14 -19 31 -33 36 -30 83 -34 116 -8 31 24 183 344 183 385 0 41 -44 87
-83 87 -52 0 -76 -21 -113 -98 -19 -41 -38 -71 -42 -68 -4 4 -32 57 -62 119
-62 127 -84 145 -150 123z"/>
<path d="M3212 2530 c-88 -54 -311 -175 -502 -273 -118 -60 -245 -130 -282
-154 -80 -53 -176 -154 -229 -243 -34 -58 -347 -851 -371 -942 -13 -48 4 -93
43 -113 42 -22 4416 -22 4458 -1 28 15 51 53 51 85 0 10 -32 101 -71 202 -39
101 -116 301 -170 444 -108 281 -146 356 -234 453 -75 82 -152 136 -305 212
-160 80 -412 214 -542 289 l-102 59 -28 -19 c-63 -45 -204 -100 -345 -134
l-71 -17 -4 -94 c-2 -55 -8 -98 -15 -105 -7 -7 -37 -14 -68 -17 -54 -4 -55 -4
-55 21 0 23 5 26 38 29 33 3 37 6 40 33 3 24 1 28 -9 18 -19 -19 -57 -16 -69
6 -5 11 -10 33 -10 50 0 17 -4 31 -10 31 -5 0 -10 -22 -10 -50 0 -49 -1 -50
-30 -50 -29 0 -30 1 -30 50 0 38 -4 50 -15 50 -11 0 -15 -12 -15 -50 0 -49 -1
-50 -30 -50 l-30 0 0 -189 c0 -189 0 -190 -26 -220 -21 -26 -33 -31 -69 -31
-38 0 -46 4 -64 34 -19 31 -21 48 -21 221 0 156 -2 186 -14 182 -24 -10 -49
19 -56 64 l-7 44 -2 -52 c-1 -52 -2 -53 -31 -53 -29 0 -30 1 -30 50 0 38 -4
50 -15 50 -11 0 -15 -12 -15 -50 0 -46 -2 -50 -23 -50 -13 0 -28 5 -35 12 -9
9 -12 9 -12 0 0 -7 -13 -12 -30 -12 -39 0 -57 38 -42 88 8 24 7 34 -1 37 -7 2
-57 15 -112 29 -108 27 -246 81 -305 120 -37 24 -37 24 -68 6z m-234 -1083
c18 -14 17 -167 -2 -167 -8 0 -16 6 -19 13 -3 9 -7 9 -20 -2 -14 -11 -20 -11
-32 -1 -24 20 -18 59 15 90 30 28 39 50 20 50 -5 0 -10 -4 -10 -10 0 -5 -9
-10 -20 -10 -26 0 -26 25 1 44 21 14 42 12 67 -7z m2290 7 c20 -13 22 -24 22
-95 0 -62 -3 -79 -14 -79 -8 0 -18 5 -21 10 -5 8 -11 7 -21 -1 -20 -16 -44 6
-44 42 0 19 9 34 30 49 29 21 41 50 20 50 -5 0 -10 -4 -10 -10 0 -5 -9 -10
-20 -10 -27 0 -25 25 2 44 12 9 25 16 28 16 3 0 16 -7 28 -16z"/>
<path d="M2937 1363 c-11 -10 -8 -43 3 -43 6 0 10 11 10 25 0 26 -2 29 -13 18z"/>
<path d="M5237 1363 c-11 -10 -8 -43 3 -43 6 0 10 11 10 25 0 26 -2 29 -13 18z"/>
<path d="M4420 2335 c0 -24 5 -35 15 -35 10 0 15 11 15 35 0 24 -5 35 -15 35
-10 0 -15 -11 -15 -35z"/>
<path d="M3756 2344 c-10 -27 -7 -44 9 -44 10 0 15 10 15 30 0 32 -14 40 -24
14z"/>
<path d="M3996 2332 c-2 -4 -1 -14 5 -22 7 -12 9 -10 9 8 0 23 -5 28 -14 14z"/>
</g>
</svg>
